<mxfile host="app.diagrams.net" modified="2024-03-21T11:38:47.478Z" agent="Mozilla/5.0 (Windows NT 10.0; Win64; x64) AppleWebKit/537.36 (KHTML, like Gecko) Chrome/122.0.0.0 Safari/537.36" etag="vctjJ0KsGFCdh4mCBm57" version="24.0.7" type="device">
  <diagram name="Página-1" id="Wtn2aZobMCRMeHRzayWd">
    <mxGraphModel dx="1013" dy="545" grid="1" gridSize="10" guides="1" tooltips="1" connect="1" arrows="1" fold="1" page="1" pageScale="1" pageWidth="2339" pageHeight="3300" math="0" shadow="0">
      <root>
        <mxCell id="0" />
        <mxCell id="1" parent="0" />
        <mxCell id="yA-_8tyoc5Dq8h9AbaSu-4" style="edgeStyle=orthogonalEdgeStyle;rounded=0;orthogonalLoop=1;jettySize=auto;html=1;" edge="1" parent="1" source="yA-_8tyoc5Dq8h9AbaSu-1" target="yA-_8tyoc5Dq8h9AbaSu-2">
          <mxGeometry relative="1" as="geometry" />
        </mxCell>
        <mxCell id="yA-_8tyoc5Dq8h9AbaSu-1" value="Tela de carregamento&lt;div&gt;(Slide 4)&lt;/div&gt;" style="rounded=0;whiteSpace=wrap;html=1;" vertex="1" parent="1">
          <mxGeometry x="515" y="30" width="120" height="60" as="geometry" />
        </mxCell>
        <mxCell id="yA-_8tyoc5Dq8h9AbaSu-5" style="edgeStyle=orthogonalEdgeStyle;rounded=0;orthogonalLoop=1;jettySize=auto;html=1;" edge="1" parent="1" source="yA-_8tyoc5Dq8h9AbaSu-2" target="yA-_8tyoc5Dq8h9AbaSu-3">
          <mxGeometry relative="1" as="geometry" />
        </mxCell>
        <mxCell id="yA-_8tyoc5Dq8h9AbaSu-2" value="Tela inicial&lt;div&gt;(Slide 5)&lt;/div&gt;" style="rounded=0;whiteSpace=wrap;html=1;" vertex="1" parent="1">
          <mxGeometry x="835" y="30" width="120" height="60" as="geometry" />
        </mxCell>
        <mxCell id="yA-_8tyoc5Dq8h9AbaSu-164" style="edgeStyle=orthogonalEdgeStyle;rounded=0;orthogonalLoop=1;jettySize=auto;html=1;exitX=0.5;exitY=1;exitDx=0;exitDy=0;" edge="1" parent="1" source="yA-_8tyoc5Dq8h9AbaSu-3" target="yA-_8tyoc5Dq8h9AbaSu-67">
          <mxGeometry relative="1" as="geometry" />
        </mxCell>
        <mxCell id="yA-_8tyoc5Dq8h9AbaSu-165" style="edgeStyle=orthogonalEdgeStyle;rounded=0;orthogonalLoop=1;jettySize=auto;html=1;" edge="1" parent="1" source="yA-_8tyoc5Dq8h9AbaSu-3" target="yA-_8tyoc5Dq8h9AbaSu-8">
          <mxGeometry relative="1" as="geometry" />
        </mxCell>
        <mxCell id="yA-_8tyoc5Dq8h9AbaSu-166" style="edgeStyle=orthogonalEdgeStyle;rounded=0;orthogonalLoop=1;jettySize=auto;html=1;exitX=1;exitY=0.5;exitDx=0;exitDy=0;" edge="1" parent="1" source="yA-_8tyoc5Dq8h9AbaSu-3" target="yA-_8tyoc5Dq8h9AbaSu-116">
          <mxGeometry relative="1" as="geometry" />
        </mxCell>
        <mxCell id="yA-_8tyoc5Dq8h9AbaSu-3" value="Escolha de dificuldade" style="rhombus;whiteSpace=wrap;html=1;" vertex="1" parent="1">
          <mxGeometry x="840" y="250" width="110" height="110" as="geometry" />
        </mxCell>
        <mxCell id="yA-_8tyoc5Dq8h9AbaSu-12" style="edgeStyle=orthogonalEdgeStyle;rounded=0;orthogonalLoop=1;jettySize=auto;html=1;" edge="1" parent="1" source="yA-_8tyoc5Dq8h9AbaSu-8" target="yA-_8tyoc5Dq8h9AbaSu-11">
          <mxGeometry relative="1" as="geometry" />
        </mxCell>
        <mxCell id="yA-_8tyoc5Dq8h9AbaSu-8" value="Questão 1&lt;div&gt;(Slide 6)&lt;/div&gt;" style="rounded=0;whiteSpace=wrap;html=1;" vertex="1" parent="1">
          <mxGeometry x="350" y="460" width="120" height="60" as="geometry" />
        </mxCell>
        <mxCell id="yA-_8tyoc5Dq8h9AbaSu-170" style="edgeStyle=orthogonalEdgeStyle;rounded=0;orthogonalLoop=1;jettySize=auto;html=1;exitX=0;exitY=0.5;exitDx=0;exitDy=0;entryX=1;entryY=0.5;entryDx=0;entryDy=0;" edge="1" parent="1" source="yA-_8tyoc5Dq8h9AbaSu-11" target="yA-_8tyoc5Dq8h9AbaSu-169">
          <mxGeometry relative="1" as="geometry">
            <mxPoint x="240" y="650" as="targetPoint" />
          </mxGeometry>
        </mxCell>
        <mxCell id="yA-_8tyoc5Dq8h9AbaSu-192" style="edgeStyle=orthogonalEdgeStyle;rounded=0;orthogonalLoop=1;jettySize=auto;html=1;entryX=0.5;entryY=0;entryDx=0;entryDy=0;" edge="1" parent="1" source="yA-_8tyoc5Dq8h9AbaSu-11" target="yA-_8tyoc5Dq8h9AbaSu-191">
          <mxGeometry relative="1" as="geometry" />
        </mxCell>
        <mxCell id="yA-_8tyoc5Dq8h9AbaSu-11" value="Acertou?" style="rhombus;whiteSpace=wrap;html=1;" vertex="1" parent="1">
          <mxGeometry x="370" y="600" width="80" height="80" as="geometry" />
        </mxCell>
        <mxCell id="yA-_8tyoc5Dq8h9AbaSu-15" value="Sim&lt;div&gt;(Bandeira da Alemanha)&lt;/div&gt;" style="text;html=1;align=center;verticalAlign=middle;resizable=0;points=[];autosize=1;strokeColor=none;fillColor=none;" vertex="1" parent="1">
          <mxGeometry x="450" y="710" width="150" height="40" as="geometry" />
        </mxCell>
        <mxCell id="yA-_8tyoc5Dq8h9AbaSu-16" value="Não&lt;div&gt;(Inglaterra, Bélgica)&lt;/div&gt;" style="text;html=1;align=center;verticalAlign=middle;resizable=0;points=[];autosize=1;strokeColor=none;fillColor=none;" vertex="1" parent="1">
          <mxGeometry x="235" y="600" width="130" height="40" as="geometry" />
        </mxCell>
        <mxCell id="yA-_8tyoc5Dq8h9AbaSu-24" style="edgeStyle=orthogonalEdgeStyle;rounded=0;orthogonalLoop=1;jettySize=auto;html=1;" edge="1" parent="1" source="yA-_8tyoc5Dq8h9AbaSu-25" target="yA-_8tyoc5Dq8h9AbaSu-28">
          <mxGeometry relative="1" as="geometry" />
        </mxCell>
        <mxCell id="yA-_8tyoc5Dq8h9AbaSu-25" value="Questão 2&lt;div&gt;(Slide 10)&lt;/div&gt;" style="rounded=0;whiteSpace=wrap;html=1;" vertex="1" parent="1">
          <mxGeometry x="350" y="770" width="120" height="60" as="geometry" />
        </mxCell>
        <mxCell id="yA-_8tyoc5Dq8h9AbaSu-177" style="edgeStyle=orthogonalEdgeStyle;rounded=0;orthogonalLoop=1;jettySize=auto;html=1;exitX=0;exitY=0.5;exitDx=0;exitDy=0;entryX=1;entryY=0.5;entryDx=0;entryDy=0;" edge="1" parent="1" source="yA-_8tyoc5Dq8h9AbaSu-28" target="yA-_8tyoc5Dq8h9AbaSu-172">
          <mxGeometry relative="1" as="geometry" />
        </mxCell>
        <mxCell id="yA-_8tyoc5Dq8h9AbaSu-28" value="Acertou?" style="rhombus;whiteSpace=wrap;html=1;" vertex="1" parent="1">
          <mxGeometry x="370" y="910" width="80" height="80" as="geometry" />
        </mxCell>
        <mxCell id="yA-_8tyoc5Dq8h9AbaSu-29" value="Sim&lt;div&gt;(Argentina)&lt;/div&gt;" style="text;html=1;align=center;verticalAlign=middle;resizable=0;points=[];autosize=1;strokeColor=none;fillColor=none;" vertex="1" parent="1">
          <mxGeometry x="450" y="1010" width="80" height="40" as="geometry" />
        </mxCell>
        <mxCell id="yA-_8tyoc5Dq8h9AbaSu-30" value="Não&lt;div&gt;(Holanda, Chile)&lt;/div&gt;" style="text;html=1;align=center;verticalAlign=middle;resizable=0;points=[];autosize=1;strokeColor=none;fillColor=none;" vertex="1" parent="1">
          <mxGeometry x="245" y="910" width="110" height="40" as="geometry" />
        </mxCell>
        <mxCell id="yA-_8tyoc5Dq8h9AbaSu-31" style="edgeStyle=orthogonalEdgeStyle;rounded=0;orthogonalLoop=1;jettySize=auto;html=1;" edge="1" parent="1" source="yA-_8tyoc5Dq8h9AbaSu-32" target="yA-_8tyoc5Dq8h9AbaSu-35">
          <mxGeometry relative="1" as="geometry" />
        </mxCell>
        <mxCell id="yA-_8tyoc5Dq8h9AbaSu-32" value="Questão 3&lt;div&gt;(Slide 14)&lt;/div&gt;" style="rounded=0;whiteSpace=wrap;html=1;" vertex="1" parent="1">
          <mxGeometry x="350" y="1070" width="120" height="60" as="geometry" />
        </mxCell>
        <mxCell id="yA-_8tyoc5Dq8h9AbaSu-179" style="edgeStyle=orthogonalEdgeStyle;rounded=0;orthogonalLoop=1;jettySize=auto;html=1;exitX=0;exitY=0.5;exitDx=0;exitDy=0;entryX=1;entryY=0.5;entryDx=0;entryDy=0;" edge="1" parent="1" source="yA-_8tyoc5Dq8h9AbaSu-35" target="yA-_8tyoc5Dq8h9AbaSu-173">
          <mxGeometry relative="1" as="geometry" />
        </mxCell>
        <mxCell id="yA-_8tyoc5Dq8h9AbaSu-35" value="Acertou?" style="rhombus;whiteSpace=wrap;html=1;" vertex="1" parent="1">
          <mxGeometry x="370" y="1210" width="80" height="80" as="geometry" />
        </mxCell>
        <mxCell id="yA-_8tyoc5Dq8h9AbaSu-36" value="Sim&lt;div&gt;(Brasil)&lt;/div&gt;" style="text;html=1;align=center;verticalAlign=middle;resizable=0;points=[];autosize=1;strokeColor=none;fillColor=none;" vertex="1" parent="1">
          <mxGeometry x="450" y="1320" width="60" height="40" as="geometry" />
        </mxCell>
        <mxCell id="yA-_8tyoc5Dq8h9AbaSu-37" value="Não&lt;div&gt;(Espanha, Jamaica)&lt;/div&gt;" style="text;html=1;align=center;verticalAlign=middle;resizable=0;points=[];autosize=1;strokeColor=none;fillColor=none;" vertex="1" parent="1">
          <mxGeometry x="240" y="1210" width="130" height="40" as="geometry" />
        </mxCell>
        <mxCell id="yA-_8tyoc5Dq8h9AbaSu-38" style="edgeStyle=orthogonalEdgeStyle;rounded=0;orthogonalLoop=1;jettySize=auto;html=1;" edge="1" parent="1" source="yA-_8tyoc5Dq8h9AbaSu-39" target="yA-_8tyoc5Dq8h9AbaSu-42">
          <mxGeometry relative="1" as="geometry" />
        </mxCell>
        <mxCell id="yA-_8tyoc5Dq8h9AbaSu-39" value="Questão 4&lt;div&gt;(Slide 18)&lt;/div&gt;" style="rounded=0;whiteSpace=wrap;html=1;" vertex="1" parent="1">
          <mxGeometry x="350" y="1380" width="120" height="60" as="geometry" />
        </mxCell>
        <mxCell id="yA-_8tyoc5Dq8h9AbaSu-181" style="edgeStyle=orthogonalEdgeStyle;rounded=0;orthogonalLoop=1;jettySize=auto;html=1;exitX=0;exitY=0.5;exitDx=0;exitDy=0;" edge="1" parent="1" source="yA-_8tyoc5Dq8h9AbaSu-42" target="yA-_8tyoc5Dq8h9AbaSu-174">
          <mxGeometry relative="1" as="geometry" />
        </mxCell>
        <mxCell id="yA-_8tyoc5Dq8h9AbaSu-42" value="Acertou?" style="rhombus;whiteSpace=wrap;html=1;" vertex="1" parent="1">
          <mxGeometry x="370" y="1520" width="80" height="80" as="geometry" />
        </mxCell>
        <mxCell id="yA-_8tyoc5Dq8h9AbaSu-43" value="Sim&lt;div&gt;(Coréia do Sul)&lt;/div&gt;" style="text;html=1;align=center;verticalAlign=middle;resizable=0;points=[];autosize=1;strokeColor=none;fillColor=none;" vertex="1" parent="1">
          <mxGeometry x="450" y="1630" width="100" height="40" as="geometry" />
        </mxCell>
        <mxCell id="yA-_8tyoc5Dq8h9AbaSu-44" value="Não&lt;div&gt;(Coréia do Norte, Japão)&lt;/div&gt;" style="text;html=1;align=center;verticalAlign=middle;resizable=0;points=[];autosize=1;strokeColor=none;fillColor=none;" vertex="1" parent="1">
          <mxGeometry x="220" y="1520" width="160" height="40" as="geometry" />
        </mxCell>
        <mxCell id="yA-_8tyoc5Dq8h9AbaSu-45" style="edgeStyle=orthogonalEdgeStyle;rounded=0;orthogonalLoop=1;jettySize=auto;html=1;" edge="1" parent="1" source="yA-_8tyoc5Dq8h9AbaSu-46" target="yA-_8tyoc5Dq8h9AbaSu-49">
          <mxGeometry relative="1" as="geometry" />
        </mxCell>
        <mxCell id="yA-_8tyoc5Dq8h9AbaSu-46" value="Questão 5&lt;div&gt;(Slide 22)&lt;/div&gt;" style="rounded=0;whiteSpace=wrap;html=1;" vertex="1" parent="1">
          <mxGeometry x="350" y="1690" width="120" height="60" as="geometry" />
        </mxCell>
        <mxCell id="yA-_8tyoc5Dq8h9AbaSu-183" style="edgeStyle=orthogonalEdgeStyle;rounded=0;orthogonalLoop=1;jettySize=auto;html=1;exitX=0;exitY=0.5;exitDx=0;exitDy=0;entryX=1;entryY=0.5;entryDx=0;entryDy=0;" edge="1" parent="1" source="yA-_8tyoc5Dq8h9AbaSu-49" target="yA-_8tyoc5Dq8h9AbaSu-175">
          <mxGeometry relative="1" as="geometry" />
        </mxCell>
        <mxCell id="yA-_8tyoc5Dq8h9AbaSu-49" value="Acertou?" style="rhombus;whiteSpace=wrap;html=1;" vertex="1" parent="1">
          <mxGeometry x="370" y="1830" width="80" height="80" as="geometry" />
        </mxCell>
        <mxCell id="yA-_8tyoc5Dq8h9AbaSu-50" value="Sim&lt;div&gt;(Estados Unidos)&lt;/div&gt;" style="text;html=1;align=center;verticalAlign=middle;resizable=0;points=[];autosize=1;strokeColor=none;fillColor=none;" vertex="1" parent="1">
          <mxGeometry x="450" y="1940" width="120" height="40" as="geometry" />
        </mxCell>
        <mxCell id="yA-_8tyoc5Dq8h9AbaSu-51" value="Não&lt;div&gt;(Rússia, Libéria)&lt;/div&gt;" style="text;html=1;align=center;verticalAlign=middle;resizable=0;points=[];autosize=1;strokeColor=none;fillColor=none;" vertex="1" parent="1">
          <mxGeometry x="250" y="1830" width="110" height="40" as="geometry" />
        </mxCell>
        <mxCell id="yA-_8tyoc5Dq8h9AbaSu-52" style="edgeStyle=orthogonalEdgeStyle;rounded=0;orthogonalLoop=1;jettySize=auto;html=1;" edge="1" parent="1" source="yA-_8tyoc5Dq8h9AbaSu-53" target="yA-_8tyoc5Dq8h9AbaSu-56">
          <mxGeometry relative="1" as="geometry" />
        </mxCell>
        <mxCell id="yA-_8tyoc5Dq8h9AbaSu-53" value="Questão 6&lt;div&gt;(Slide 26)&lt;/div&gt;" style="rounded=0;whiteSpace=wrap;html=1;" vertex="1" parent="1">
          <mxGeometry x="350" y="2000" width="120" height="60" as="geometry" />
        </mxCell>
        <mxCell id="yA-_8tyoc5Dq8h9AbaSu-185" style="edgeStyle=orthogonalEdgeStyle;rounded=0;orthogonalLoop=1;jettySize=auto;html=1;exitX=0;exitY=0.5;exitDx=0;exitDy=0;entryX=1;entryY=0.5;entryDx=0;entryDy=0;" edge="1" parent="1" source="yA-_8tyoc5Dq8h9AbaSu-56" target="yA-_8tyoc5Dq8h9AbaSu-176">
          <mxGeometry relative="1" as="geometry" />
        </mxCell>
        <mxCell id="yA-_8tyoc5Dq8h9AbaSu-56" value="Acertou?" style="rhombus;whiteSpace=wrap;html=1;" vertex="1" parent="1">
          <mxGeometry x="370" y="2140" width="80" height="80" as="geometry" />
        </mxCell>
        <mxCell id="yA-_8tyoc5Dq8h9AbaSu-57" value="Sim&lt;div&gt;(México)&lt;/div&gt;" style="text;html=1;align=center;verticalAlign=middle;resizable=0;points=[];autosize=1;strokeColor=none;fillColor=none;" vertex="1" parent="1">
          <mxGeometry x="450" y="2250" width="70" height="40" as="geometry" />
        </mxCell>
        <mxCell id="yA-_8tyoc5Dq8h9AbaSu-58" value="Não&lt;div&gt;(Portugal, Peru)&lt;/div&gt;" style="text;html=1;align=center;verticalAlign=middle;resizable=0;points=[];autosize=1;strokeColor=none;fillColor=none;" vertex="1" parent="1">
          <mxGeometry x="220" y="2085" width="110" height="40" as="geometry" />
        </mxCell>
        <mxCell id="yA-_8tyoc5Dq8h9AbaSu-59" style="edgeStyle=orthogonalEdgeStyle;rounded=0;orthogonalLoop=1;jettySize=auto;html=1;" edge="1" parent="1" source="yA-_8tyoc5Dq8h9AbaSu-60" target="yA-_8tyoc5Dq8h9AbaSu-63">
          <mxGeometry relative="1" as="geometry" />
        </mxCell>
        <mxCell id="yA-_8tyoc5Dq8h9AbaSu-60" value="Questão 7&lt;div&gt;(Slide 30)&lt;/div&gt;" style="rounded=0;whiteSpace=wrap;html=1;" vertex="1" parent="1">
          <mxGeometry x="350" y="2310" width="120" height="60" as="geometry" />
        </mxCell>
        <mxCell id="yA-_8tyoc5Dq8h9AbaSu-188" style="edgeStyle=orthogonalEdgeStyle;rounded=0;orthogonalLoop=1;jettySize=auto;html=1;exitX=0;exitY=0.5;exitDx=0;exitDy=0;entryX=1;entryY=0.5;entryDx=0;entryDy=0;" edge="1" parent="1" source="yA-_8tyoc5Dq8h9AbaSu-63" target="yA-_8tyoc5Dq8h9AbaSu-187">
          <mxGeometry relative="1" as="geometry" />
        </mxCell>
        <mxCell id="yA-_8tyoc5Dq8h9AbaSu-63" value="Acertou?" style="rhombus;whiteSpace=wrap;html=1;" vertex="1" parent="1">
          <mxGeometry x="370" y="2450" width="80" height="80" as="geometry" />
        </mxCell>
        <mxCell id="yA-_8tyoc5Dq8h9AbaSu-64" value="Sim&lt;div&gt;(Espanha)&lt;/div&gt;" style="text;html=1;align=center;verticalAlign=middle;resizable=0;points=[];autosize=1;strokeColor=none;fillColor=none;" vertex="1" parent="1">
          <mxGeometry x="450" y="2560" width="80" height="40" as="geometry" />
        </mxCell>
        <mxCell id="yA-_8tyoc5Dq8h9AbaSu-65" value="Não&lt;div&gt;(Bolívia, Portugal)&lt;/div&gt;" style="text;html=1;align=center;verticalAlign=middle;resizable=0;points=[];autosize=1;strokeColor=none;fillColor=none;" vertex="1" parent="1">
          <mxGeometry x="210" y="2395" width="120" height="40" as="geometry" />
        </mxCell>
        <mxCell id="yA-_8tyoc5Dq8h9AbaSu-66" style="edgeStyle=orthogonalEdgeStyle;rounded=0;orthogonalLoop=1;jettySize=auto;html=1;" edge="1" parent="1" source="yA-_8tyoc5Dq8h9AbaSu-67" target="yA-_8tyoc5Dq8h9AbaSu-70">
          <mxGeometry relative="1" as="geometry" />
        </mxCell>
        <mxCell id="yA-_8tyoc5Dq8h9AbaSu-67" value="Questão 1" style="rounded=0;whiteSpace=wrap;html=1;" vertex="1" parent="1">
          <mxGeometry x="835" y="460" width="120" height="60" as="geometry" />
        </mxCell>
        <mxCell id="yA-_8tyoc5Dq8h9AbaSu-68" style="edgeStyle=orthogonalEdgeStyle;rounded=0;orthogonalLoop=1;jettySize=auto;html=1;entryX=0;entryY=0.5;entryDx=0;entryDy=0;" edge="1" parent="1" source="yA-_8tyoc5Dq8h9AbaSu-70" target="yA-_8tyoc5Dq8h9AbaSu-67">
          <mxGeometry relative="1" as="geometry">
            <Array as="points">
              <mxPoint x="815" y="640" />
              <mxPoint x="815" y="490" />
            </Array>
          </mxGeometry>
        </mxCell>
        <mxCell id="yA-_8tyoc5Dq8h9AbaSu-69" style="edgeStyle=orthogonalEdgeStyle;rounded=0;orthogonalLoop=1;jettySize=auto;html=1;" edge="1" parent="1" source="yA-_8tyoc5Dq8h9AbaSu-70">
          <mxGeometry relative="1" as="geometry">
            <mxPoint x="895" y="770" as="targetPoint" />
          </mxGeometry>
        </mxCell>
        <mxCell id="yA-_8tyoc5Dq8h9AbaSu-70" value="Acertou?" style="rhombus;whiteSpace=wrap;html=1;" vertex="1" parent="1">
          <mxGeometry x="855" y="600" width="80" height="80" as="geometry" />
        </mxCell>
        <mxCell id="yA-_8tyoc5Dq8h9AbaSu-71" value="Sim" style="text;html=1;align=center;verticalAlign=middle;resizable=0;points=[];autosize=1;strokeColor=none;fillColor=none;" vertex="1" parent="1">
          <mxGeometry x="915" y="718" width="40" height="30" as="geometry" />
        </mxCell>
        <mxCell id="yA-_8tyoc5Dq8h9AbaSu-72" value="Não" style="text;html=1;align=center;verticalAlign=middle;resizable=0;points=[];autosize=1;strokeColor=none;fillColor=none;" vertex="1" parent="1">
          <mxGeometry x="745" y="550" width="50" height="30" as="geometry" />
        </mxCell>
        <mxCell id="yA-_8tyoc5Dq8h9AbaSu-73" style="edgeStyle=orthogonalEdgeStyle;rounded=0;orthogonalLoop=1;jettySize=auto;html=1;" edge="1" parent="1" source="yA-_8tyoc5Dq8h9AbaSu-74" target="yA-_8tyoc5Dq8h9AbaSu-77">
          <mxGeometry relative="1" as="geometry" />
        </mxCell>
        <mxCell id="yA-_8tyoc5Dq8h9AbaSu-74" value="Questão 2" style="rounded=0;whiteSpace=wrap;html=1;" vertex="1" parent="1">
          <mxGeometry x="835" y="770" width="120" height="60" as="geometry" />
        </mxCell>
        <mxCell id="yA-_8tyoc5Dq8h9AbaSu-75" style="edgeStyle=orthogonalEdgeStyle;rounded=0;orthogonalLoop=1;jettySize=auto;html=1;entryX=0;entryY=0.5;entryDx=0;entryDy=0;" edge="1" parent="1" source="yA-_8tyoc5Dq8h9AbaSu-77" target="yA-_8tyoc5Dq8h9AbaSu-74">
          <mxGeometry relative="1" as="geometry">
            <Array as="points">
              <mxPoint x="815" y="950" />
              <mxPoint x="815" y="800" />
            </Array>
          </mxGeometry>
        </mxCell>
        <mxCell id="yA-_8tyoc5Dq8h9AbaSu-76" style="edgeStyle=orthogonalEdgeStyle;rounded=0;orthogonalLoop=1;jettySize=auto;html=1;" edge="1" parent="1" source="yA-_8tyoc5Dq8h9AbaSu-77">
          <mxGeometry relative="1" as="geometry">
            <mxPoint x="895" y="1080" as="targetPoint" />
          </mxGeometry>
        </mxCell>
        <mxCell id="yA-_8tyoc5Dq8h9AbaSu-77" value="Acertou?" style="rhombus;whiteSpace=wrap;html=1;" vertex="1" parent="1">
          <mxGeometry x="855" y="910" width="80" height="80" as="geometry" />
        </mxCell>
        <mxCell id="yA-_8tyoc5Dq8h9AbaSu-78" value="Sim" style="text;html=1;align=center;verticalAlign=middle;resizable=0;points=[];autosize=1;strokeColor=none;fillColor=none;" vertex="1" parent="1">
          <mxGeometry x="915" y="1028" width="40" height="30" as="geometry" />
        </mxCell>
        <mxCell id="yA-_8tyoc5Dq8h9AbaSu-79" value="Não" style="text;html=1;align=center;verticalAlign=middle;resizable=0;points=[];autosize=1;strokeColor=none;fillColor=none;" vertex="1" parent="1">
          <mxGeometry x="745" y="860" width="50" height="30" as="geometry" />
        </mxCell>
        <mxCell id="yA-_8tyoc5Dq8h9AbaSu-80" style="edgeStyle=orthogonalEdgeStyle;rounded=0;orthogonalLoop=1;jettySize=auto;html=1;" edge="1" parent="1" source="yA-_8tyoc5Dq8h9AbaSu-81" target="yA-_8tyoc5Dq8h9AbaSu-84">
          <mxGeometry relative="1" as="geometry" />
        </mxCell>
        <mxCell id="yA-_8tyoc5Dq8h9AbaSu-81" value="Questão 3" style="rounded=0;whiteSpace=wrap;html=1;" vertex="1" parent="1">
          <mxGeometry x="835" y="1070" width="120" height="60" as="geometry" />
        </mxCell>
        <mxCell id="yA-_8tyoc5Dq8h9AbaSu-82" style="edgeStyle=orthogonalEdgeStyle;rounded=0;orthogonalLoop=1;jettySize=auto;html=1;entryX=0;entryY=0.5;entryDx=0;entryDy=0;" edge="1" parent="1" source="yA-_8tyoc5Dq8h9AbaSu-84" target="yA-_8tyoc5Dq8h9AbaSu-81">
          <mxGeometry relative="1" as="geometry">
            <Array as="points">
              <mxPoint x="815" y="1250" />
              <mxPoint x="815" y="1100" />
            </Array>
          </mxGeometry>
        </mxCell>
        <mxCell id="yA-_8tyoc5Dq8h9AbaSu-83" style="edgeStyle=orthogonalEdgeStyle;rounded=0;orthogonalLoop=1;jettySize=auto;html=1;" edge="1" parent="1" source="yA-_8tyoc5Dq8h9AbaSu-84">
          <mxGeometry relative="1" as="geometry">
            <mxPoint x="895" y="1380" as="targetPoint" />
          </mxGeometry>
        </mxCell>
        <mxCell id="yA-_8tyoc5Dq8h9AbaSu-84" value="Acertou?" style="rhombus;whiteSpace=wrap;html=1;" vertex="1" parent="1">
          <mxGeometry x="855" y="1210" width="80" height="80" as="geometry" />
        </mxCell>
        <mxCell id="yA-_8tyoc5Dq8h9AbaSu-85" value="Sim" style="text;html=1;align=center;verticalAlign=middle;resizable=0;points=[];autosize=1;strokeColor=none;fillColor=none;" vertex="1" parent="1">
          <mxGeometry x="915" y="1328" width="40" height="30" as="geometry" />
        </mxCell>
        <mxCell id="yA-_8tyoc5Dq8h9AbaSu-86" value="Não" style="text;html=1;align=center;verticalAlign=middle;resizable=0;points=[];autosize=1;strokeColor=none;fillColor=none;" vertex="1" parent="1">
          <mxGeometry x="745" y="1160" width="50" height="30" as="geometry" />
        </mxCell>
        <mxCell id="yA-_8tyoc5Dq8h9AbaSu-87" style="edgeStyle=orthogonalEdgeStyle;rounded=0;orthogonalLoop=1;jettySize=auto;html=1;" edge="1" parent="1" source="yA-_8tyoc5Dq8h9AbaSu-88" target="yA-_8tyoc5Dq8h9AbaSu-91">
          <mxGeometry relative="1" as="geometry" />
        </mxCell>
        <mxCell id="yA-_8tyoc5Dq8h9AbaSu-88" value="Questão 4" style="rounded=0;whiteSpace=wrap;html=1;" vertex="1" parent="1">
          <mxGeometry x="835" y="1380" width="120" height="60" as="geometry" />
        </mxCell>
        <mxCell id="yA-_8tyoc5Dq8h9AbaSu-89" style="edgeStyle=orthogonalEdgeStyle;rounded=0;orthogonalLoop=1;jettySize=auto;html=1;entryX=0;entryY=0.5;entryDx=0;entryDy=0;" edge="1" parent="1" source="yA-_8tyoc5Dq8h9AbaSu-91" target="yA-_8tyoc5Dq8h9AbaSu-88">
          <mxGeometry relative="1" as="geometry">
            <Array as="points">
              <mxPoint x="815" y="1560" />
              <mxPoint x="815" y="1410" />
            </Array>
          </mxGeometry>
        </mxCell>
        <mxCell id="yA-_8tyoc5Dq8h9AbaSu-90" style="edgeStyle=orthogonalEdgeStyle;rounded=0;orthogonalLoop=1;jettySize=auto;html=1;" edge="1" parent="1" source="yA-_8tyoc5Dq8h9AbaSu-91">
          <mxGeometry relative="1" as="geometry">
            <mxPoint x="895" y="1690" as="targetPoint" />
          </mxGeometry>
        </mxCell>
        <mxCell id="yA-_8tyoc5Dq8h9AbaSu-91" value="Acertou?" style="rhombus;whiteSpace=wrap;html=1;" vertex="1" parent="1">
          <mxGeometry x="855" y="1520" width="80" height="80" as="geometry" />
        </mxCell>
        <mxCell id="yA-_8tyoc5Dq8h9AbaSu-92" value="Sim" style="text;html=1;align=center;verticalAlign=middle;resizable=0;points=[];autosize=1;strokeColor=none;fillColor=none;" vertex="1" parent="1">
          <mxGeometry x="915" y="1638" width="40" height="30" as="geometry" />
        </mxCell>
        <mxCell id="yA-_8tyoc5Dq8h9AbaSu-93" value="Não" style="text;html=1;align=center;verticalAlign=middle;resizable=0;points=[];autosize=1;strokeColor=none;fillColor=none;" vertex="1" parent="1">
          <mxGeometry x="745" y="1470" width="50" height="30" as="geometry" />
        </mxCell>
        <mxCell id="yA-_8tyoc5Dq8h9AbaSu-94" style="edgeStyle=orthogonalEdgeStyle;rounded=0;orthogonalLoop=1;jettySize=auto;html=1;" edge="1" parent="1" source="yA-_8tyoc5Dq8h9AbaSu-95" target="yA-_8tyoc5Dq8h9AbaSu-98">
          <mxGeometry relative="1" as="geometry" />
        </mxCell>
        <mxCell id="yA-_8tyoc5Dq8h9AbaSu-95" value="Questão 5" style="rounded=0;whiteSpace=wrap;html=1;" vertex="1" parent="1">
          <mxGeometry x="835" y="1690" width="120" height="60" as="geometry" />
        </mxCell>
        <mxCell id="yA-_8tyoc5Dq8h9AbaSu-96" style="edgeStyle=orthogonalEdgeStyle;rounded=0;orthogonalLoop=1;jettySize=auto;html=1;entryX=0;entryY=0.5;entryDx=0;entryDy=0;" edge="1" parent="1" source="yA-_8tyoc5Dq8h9AbaSu-98" target="yA-_8tyoc5Dq8h9AbaSu-95">
          <mxGeometry relative="1" as="geometry">
            <Array as="points">
              <mxPoint x="815" y="1870" />
              <mxPoint x="815" y="1720" />
            </Array>
          </mxGeometry>
        </mxCell>
        <mxCell id="yA-_8tyoc5Dq8h9AbaSu-97" style="edgeStyle=orthogonalEdgeStyle;rounded=0;orthogonalLoop=1;jettySize=auto;html=1;" edge="1" parent="1" source="yA-_8tyoc5Dq8h9AbaSu-98">
          <mxGeometry relative="1" as="geometry">
            <mxPoint x="895" y="2000" as="targetPoint" />
          </mxGeometry>
        </mxCell>
        <mxCell id="yA-_8tyoc5Dq8h9AbaSu-98" value="Acertou?" style="rhombus;whiteSpace=wrap;html=1;" vertex="1" parent="1">
          <mxGeometry x="855" y="1830" width="80" height="80" as="geometry" />
        </mxCell>
        <mxCell id="yA-_8tyoc5Dq8h9AbaSu-99" value="Sim" style="text;html=1;align=center;verticalAlign=middle;resizable=0;points=[];autosize=1;strokeColor=none;fillColor=none;" vertex="1" parent="1">
          <mxGeometry x="915" y="1948" width="40" height="30" as="geometry" />
        </mxCell>
        <mxCell id="yA-_8tyoc5Dq8h9AbaSu-100" value="Não" style="text;html=1;align=center;verticalAlign=middle;resizable=0;points=[];autosize=1;strokeColor=none;fillColor=none;" vertex="1" parent="1">
          <mxGeometry x="745" y="1780" width="50" height="30" as="geometry" />
        </mxCell>
        <mxCell id="yA-_8tyoc5Dq8h9AbaSu-101" style="edgeStyle=orthogonalEdgeStyle;rounded=0;orthogonalLoop=1;jettySize=auto;html=1;" edge="1" parent="1" source="yA-_8tyoc5Dq8h9AbaSu-102" target="yA-_8tyoc5Dq8h9AbaSu-105">
          <mxGeometry relative="1" as="geometry" />
        </mxCell>
        <mxCell id="yA-_8tyoc5Dq8h9AbaSu-102" value="Questão 6" style="rounded=0;whiteSpace=wrap;html=1;" vertex="1" parent="1">
          <mxGeometry x="835" y="2000" width="120" height="60" as="geometry" />
        </mxCell>
        <mxCell id="yA-_8tyoc5Dq8h9AbaSu-103" style="edgeStyle=orthogonalEdgeStyle;rounded=0;orthogonalLoop=1;jettySize=auto;html=1;entryX=0;entryY=0.5;entryDx=0;entryDy=0;" edge="1" parent="1" source="yA-_8tyoc5Dq8h9AbaSu-105" target="yA-_8tyoc5Dq8h9AbaSu-102">
          <mxGeometry relative="1" as="geometry">
            <Array as="points">
              <mxPoint x="815" y="2180" />
              <mxPoint x="815" y="2030" />
            </Array>
          </mxGeometry>
        </mxCell>
        <mxCell id="yA-_8tyoc5Dq8h9AbaSu-104" style="edgeStyle=orthogonalEdgeStyle;rounded=0;orthogonalLoop=1;jettySize=auto;html=1;" edge="1" parent="1" source="yA-_8tyoc5Dq8h9AbaSu-105">
          <mxGeometry relative="1" as="geometry">
            <mxPoint x="895" y="2310" as="targetPoint" />
          </mxGeometry>
        </mxCell>
        <mxCell id="yA-_8tyoc5Dq8h9AbaSu-105" value="Acertou?" style="rhombus;whiteSpace=wrap;html=1;" vertex="1" parent="1">
          <mxGeometry x="855" y="2140" width="80" height="80" as="geometry" />
        </mxCell>
        <mxCell id="yA-_8tyoc5Dq8h9AbaSu-106" value="Sim" style="text;html=1;align=center;verticalAlign=middle;resizable=0;points=[];autosize=1;strokeColor=none;fillColor=none;" vertex="1" parent="1">
          <mxGeometry x="915" y="2258" width="40" height="30" as="geometry" />
        </mxCell>
        <mxCell id="yA-_8tyoc5Dq8h9AbaSu-107" value="Não" style="text;html=1;align=center;verticalAlign=middle;resizable=0;points=[];autosize=1;strokeColor=none;fillColor=none;" vertex="1" parent="1">
          <mxGeometry x="745" y="2090" width="50" height="30" as="geometry" />
        </mxCell>
        <mxCell id="yA-_8tyoc5Dq8h9AbaSu-108" style="edgeStyle=orthogonalEdgeStyle;rounded=0;orthogonalLoop=1;jettySize=auto;html=1;" edge="1" parent="1" source="yA-_8tyoc5Dq8h9AbaSu-109" target="yA-_8tyoc5Dq8h9AbaSu-112">
          <mxGeometry relative="1" as="geometry" />
        </mxCell>
        <mxCell id="yA-_8tyoc5Dq8h9AbaSu-109" value="Questão 7" style="rounded=0;whiteSpace=wrap;html=1;" vertex="1" parent="1">
          <mxGeometry x="835" y="2310" width="120" height="60" as="geometry" />
        </mxCell>
        <mxCell id="yA-_8tyoc5Dq8h9AbaSu-110" style="edgeStyle=orthogonalEdgeStyle;rounded=0;orthogonalLoop=1;jettySize=auto;html=1;entryX=0;entryY=0.5;entryDx=0;entryDy=0;" edge="1" parent="1" source="yA-_8tyoc5Dq8h9AbaSu-112" target="yA-_8tyoc5Dq8h9AbaSu-109">
          <mxGeometry relative="1" as="geometry">
            <Array as="points">
              <mxPoint x="815" y="2490" />
              <mxPoint x="815" y="2340" />
            </Array>
          </mxGeometry>
        </mxCell>
        <mxCell id="yA-_8tyoc5Dq8h9AbaSu-111" style="edgeStyle=orthogonalEdgeStyle;rounded=0;orthogonalLoop=1;jettySize=auto;html=1;" edge="1" parent="1" source="yA-_8tyoc5Dq8h9AbaSu-112" target="yA-_8tyoc5Dq8h9AbaSu-167">
          <mxGeometry relative="1" as="geometry">
            <mxPoint x="895" y="2620" as="targetPoint" />
          </mxGeometry>
        </mxCell>
        <mxCell id="yA-_8tyoc5Dq8h9AbaSu-112" value="Acertou?" style="rhombus;whiteSpace=wrap;html=1;" vertex="1" parent="1">
          <mxGeometry x="855" y="2450" width="80" height="80" as="geometry" />
        </mxCell>
        <mxCell id="yA-_8tyoc5Dq8h9AbaSu-113" value="Sim" style="text;html=1;align=center;verticalAlign=middle;resizable=0;points=[];autosize=1;strokeColor=none;fillColor=none;" vertex="1" parent="1">
          <mxGeometry x="915" y="2568" width="40" height="30" as="geometry" />
        </mxCell>
        <mxCell id="yA-_8tyoc5Dq8h9AbaSu-114" value="Não" style="text;html=1;align=center;verticalAlign=middle;resizable=0;points=[];autosize=1;strokeColor=none;fillColor=none;" vertex="1" parent="1">
          <mxGeometry x="745" y="2400" width="50" height="30" as="geometry" />
        </mxCell>
        <mxCell id="yA-_8tyoc5Dq8h9AbaSu-115" style="edgeStyle=orthogonalEdgeStyle;rounded=0;orthogonalLoop=1;jettySize=auto;html=1;" edge="1" parent="1" source="yA-_8tyoc5Dq8h9AbaSu-116" target="yA-_8tyoc5Dq8h9AbaSu-119">
          <mxGeometry relative="1" as="geometry" />
        </mxCell>
        <mxCell id="yA-_8tyoc5Dq8h9AbaSu-116" value="Questão 1" style="rounded=0;whiteSpace=wrap;html=1;" vertex="1" parent="1">
          <mxGeometry x="1330" y="460" width="120" height="60" as="geometry" />
        </mxCell>
        <mxCell id="yA-_8tyoc5Dq8h9AbaSu-117" style="edgeStyle=orthogonalEdgeStyle;rounded=0;orthogonalLoop=1;jettySize=auto;html=1;entryX=0;entryY=0.5;entryDx=0;entryDy=0;" edge="1" parent="1" source="yA-_8tyoc5Dq8h9AbaSu-119" target="yA-_8tyoc5Dq8h9AbaSu-116">
          <mxGeometry relative="1" as="geometry">
            <Array as="points">
              <mxPoint x="1310" y="640" />
              <mxPoint x="1310" y="490" />
            </Array>
          </mxGeometry>
        </mxCell>
        <mxCell id="yA-_8tyoc5Dq8h9AbaSu-118" style="edgeStyle=orthogonalEdgeStyle;rounded=0;orthogonalLoop=1;jettySize=auto;html=1;" edge="1" parent="1" source="yA-_8tyoc5Dq8h9AbaSu-119">
          <mxGeometry relative="1" as="geometry">
            <mxPoint x="1390" y="770" as="targetPoint" />
          </mxGeometry>
        </mxCell>
        <mxCell id="yA-_8tyoc5Dq8h9AbaSu-119" value="Acertou?" style="rhombus;whiteSpace=wrap;html=1;" vertex="1" parent="1">
          <mxGeometry x="1350" y="600" width="80" height="80" as="geometry" />
        </mxCell>
        <mxCell id="yA-_8tyoc5Dq8h9AbaSu-120" value="Sim" style="text;html=1;align=center;verticalAlign=middle;resizable=0;points=[];autosize=1;strokeColor=none;fillColor=none;" vertex="1" parent="1">
          <mxGeometry x="1410" y="718" width="40" height="30" as="geometry" />
        </mxCell>
        <mxCell id="yA-_8tyoc5Dq8h9AbaSu-121" value="Não" style="text;html=1;align=center;verticalAlign=middle;resizable=0;points=[];autosize=1;strokeColor=none;fillColor=none;" vertex="1" parent="1">
          <mxGeometry x="1240" y="550" width="50" height="30" as="geometry" />
        </mxCell>
        <mxCell id="yA-_8tyoc5Dq8h9AbaSu-122" style="edgeStyle=orthogonalEdgeStyle;rounded=0;orthogonalLoop=1;jettySize=auto;html=1;" edge="1" parent="1" source="yA-_8tyoc5Dq8h9AbaSu-123" target="yA-_8tyoc5Dq8h9AbaSu-126">
          <mxGeometry relative="1" as="geometry" />
        </mxCell>
        <mxCell id="yA-_8tyoc5Dq8h9AbaSu-123" value="Questão 2" style="rounded=0;whiteSpace=wrap;html=1;" vertex="1" parent="1">
          <mxGeometry x="1330" y="770" width="120" height="60" as="geometry" />
        </mxCell>
        <mxCell id="yA-_8tyoc5Dq8h9AbaSu-124" style="edgeStyle=orthogonalEdgeStyle;rounded=0;orthogonalLoop=1;jettySize=auto;html=1;entryX=0;entryY=0.5;entryDx=0;entryDy=0;" edge="1" parent="1" source="yA-_8tyoc5Dq8h9AbaSu-126" target="yA-_8tyoc5Dq8h9AbaSu-123">
          <mxGeometry relative="1" as="geometry">
            <Array as="points">
              <mxPoint x="1310" y="950" />
              <mxPoint x="1310" y="800" />
            </Array>
          </mxGeometry>
        </mxCell>
        <mxCell id="yA-_8tyoc5Dq8h9AbaSu-125" style="edgeStyle=orthogonalEdgeStyle;rounded=0;orthogonalLoop=1;jettySize=auto;html=1;" edge="1" parent="1" source="yA-_8tyoc5Dq8h9AbaSu-126">
          <mxGeometry relative="1" as="geometry">
            <mxPoint x="1390" y="1080" as="targetPoint" />
          </mxGeometry>
        </mxCell>
        <mxCell id="yA-_8tyoc5Dq8h9AbaSu-126" value="Acertou?" style="rhombus;whiteSpace=wrap;html=1;" vertex="1" parent="1">
          <mxGeometry x="1350" y="910" width="80" height="80" as="geometry" />
        </mxCell>
        <mxCell id="yA-_8tyoc5Dq8h9AbaSu-127" value="Sim" style="text;html=1;align=center;verticalAlign=middle;resizable=0;points=[];autosize=1;strokeColor=none;fillColor=none;" vertex="1" parent="1">
          <mxGeometry x="1410" y="1028" width="40" height="30" as="geometry" />
        </mxCell>
        <mxCell id="yA-_8tyoc5Dq8h9AbaSu-128" value="Não" style="text;html=1;align=center;verticalAlign=middle;resizable=0;points=[];autosize=1;strokeColor=none;fillColor=none;" vertex="1" parent="1">
          <mxGeometry x="1240" y="860" width="50" height="30" as="geometry" />
        </mxCell>
        <mxCell id="yA-_8tyoc5Dq8h9AbaSu-129" style="edgeStyle=orthogonalEdgeStyle;rounded=0;orthogonalLoop=1;jettySize=auto;html=1;" edge="1" parent="1" source="yA-_8tyoc5Dq8h9AbaSu-130" target="yA-_8tyoc5Dq8h9AbaSu-133">
          <mxGeometry relative="1" as="geometry" />
        </mxCell>
        <mxCell id="yA-_8tyoc5Dq8h9AbaSu-130" value="Questão 3" style="rounded=0;whiteSpace=wrap;html=1;" vertex="1" parent="1">
          <mxGeometry x="1330" y="1070" width="120" height="60" as="geometry" />
        </mxCell>
        <mxCell id="yA-_8tyoc5Dq8h9AbaSu-131" style="edgeStyle=orthogonalEdgeStyle;rounded=0;orthogonalLoop=1;jettySize=auto;html=1;entryX=0;entryY=0.5;entryDx=0;entryDy=0;" edge="1" parent="1" source="yA-_8tyoc5Dq8h9AbaSu-133" target="yA-_8tyoc5Dq8h9AbaSu-130">
          <mxGeometry relative="1" as="geometry">
            <Array as="points">
              <mxPoint x="1310" y="1250" />
              <mxPoint x="1310" y="1100" />
            </Array>
          </mxGeometry>
        </mxCell>
        <mxCell id="yA-_8tyoc5Dq8h9AbaSu-132" style="edgeStyle=orthogonalEdgeStyle;rounded=0;orthogonalLoop=1;jettySize=auto;html=1;" edge="1" parent="1" source="yA-_8tyoc5Dq8h9AbaSu-133">
          <mxGeometry relative="1" as="geometry">
            <mxPoint x="1390" y="1380" as="targetPoint" />
          </mxGeometry>
        </mxCell>
        <mxCell id="yA-_8tyoc5Dq8h9AbaSu-133" value="Acertou?" style="rhombus;whiteSpace=wrap;html=1;" vertex="1" parent="1">
          <mxGeometry x="1350" y="1210" width="80" height="80" as="geometry" />
        </mxCell>
        <mxCell id="yA-_8tyoc5Dq8h9AbaSu-134" value="Sim" style="text;html=1;align=center;verticalAlign=middle;resizable=0;points=[];autosize=1;strokeColor=none;fillColor=none;" vertex="1" parent="1">
          <mxGeometry x="1410" y="1328" width="40" height="30" as="geometry" />
        </mxCell>
        <mxCell id="yA-_8tyoc5Dq8h9AbaSu-135" value="Não" style="text;html=1;align=center;verticalAlign=middle;resizable=0;points=[];autosize=1;strokeColor=none;fillColor=none;" vertex="1" parent="1">
          <mxGeometry x="1240" y="1160" width="50" height="30" as="geometry" />
        </mxCell>
        <mxCell id="yA-_8tyoc5Dq8h9AbaSu-136" style="edgeStyle=orthogonalEdgeStyle;rounded=0;orthogonalLoop=1;jettySize=auto;html=1;" edge="1" parent="1" source="yA-_8tyoc5Dq8h9AbaSu-137" target="yA-_8tyoc5Dq8h9AbaSu-140">
          <mxGeometry relative="1" as="geometry" />
        </mxCell>
        <mxCell id="yA-_8tyoc5Dq8h9AbaSu-137" value="Questão 4" style="rounded=0;whiteSpace=wrap;html=1;" vertex="1" parent="1">
          <mxGeometry x="1330" y="1380" width="120" height="60" as="geometry" />
        </mxCell>
        <mxCell id="yA-_8tyoc5Dq8h9AbaSu-138" style="edgeStyle=orthogonalEdgeStyle;rounded=0;orthogonalLoop=1;jettySize=auto;html=1;entryX=0;entryY=0.5;entryDx=0;entryDy=0;" edge="1" parent="1" source="yA-_8tyoc5Dq8h9AbaSu-140" target="yA-_8tyoc5Dq8h9AbaSu-137">
          <mxGeometry relative="1" as="geometry">
            <Array as="points">
              <mxPoint x="1310" y="1560" />
              <mxPoint x="1310" y="1410" />
            </Array>
          </mxGeometry>
        </mxCell>
        <mxCell id="yA-_8tyoc5Dq8h9AbaSu-139" style="edgeStyle=orthogonalEdgeStyle;rounded=0;orthogonalLoop=1;jettySize=auto;html=1;" edge="1" parent="1" source="yA-_8tyoc5Dq8h9AbaSu-140">
          <mxGeometry relative="1" as="geometry">
            <mxPoint x="1390" y="1690" as="targetPoint" />
          </mxGeometry>
        </mxCell>
        <mxCell id="yA-_8tyoc5Dq8h9AbaSu-140" value="Acertou?" style="rhombus;whiteSpace=wrap;html=1;" vertex="1" parent="1">
          <mxGeometry x="1350" y="1520" width="80" height="80" as="geometry" />
        </mxCell>
        <mxCell id="yA-_8tyoc5Dq8h9AbaSu-141" value="Sim" style="text;html=1;align=center;verticalAlign=middle;resizable=0;points=[];autosize=1;strokeColor=none;fillColor=none;" vertex="1" parent="1">
          <mxGeometry x="1410" y="1638" width="40" height="30" as="geometry" />
        </mxCell>
        <mxCell id="yA-_8tyoc5Dq8h9AbaSu-142" value="Não" style="text;html=1;align=center;verticalAlign=middle;resizable=0;points=[];autosize=1;strokeColor=none;fillColor=none;" vertex="1" parent="1">
          <mxGeometry x="1240" y="1470" width="50" height="30" as="geometry" />
        </mxCell>
        <mxCell id="yA-_8tyoc5Dq8h9AbaSu-143" style="edgeStyle=orthogonalEdgeStyle;rounded=0;orthogonalLoop=1;jettySize=auto;html=1;" edge="1" parent="1" source="yA-_8tyoc5Dq8h9AbaSu-144" target="yA-_8tyoc5Dq8h9AbaSu-147">
          <mxGeometry relative="1" as="geometry" />
        </mxCell>
        <mxCell id="yA-_8tyoc5Dq8h9AbaSu-144" value="Questão 5" style="rounded=0;whiteSpace=wrap;html=1;" vertex="1" parent="1">
          <mxGeometry x="1330" y="1690" width="120" height="60" as="geometry" />
        </mxCell>
        <mxCell id="yA-_8tyoc5Dq8h9AbaSu-145" style="edgeStyle=orthogonalEdgeStyle;rounded=0;orthogonalLoop=1;jettySize=auto;html=1;entryX=0;entryY=0.5;entryDx=0;entryDy=0;" edge="1" parent="1" source="yA-_8tyoc5Dq8h9AbaSu-147" target="yA-_8tyoc5Dq8h9AbaSu-144">
          <mxGeometry relative="1" as="geometry">
            <Array as="points">
              <mxPoint x="1310" y="1870" />
              <mxPoint x="1310" y="1720" />
            </Array>
          </mxGeometry>
        </mxCell>
        <mxCell id="yA-_8tyoc5Dq8h9AbaSu-146" style="edgeStyle=orthogonalEdgeStyle;rounded=0;orthogonalLoop=1;jettySize=auto;html=1;" edge="1" parent="1" source="yA-_8tyoc5Dq8h9AbaSu-147">
          <mxGeometry relative="1" as="geometry">
            <mxPoint x="1390" y="2000" as="targetPoint" />
          </mxGeometry>
        </mxCell>
        <mxCell id="yA-_8tyoc5Dq8h9AbaSu-147" value="Acertou?" style="rhombus;whiteSpace=wrap;html=1;" vertex="1" parent="1">
          <mxGeometry x="1350" y="1830" width="80" height="80" as="geometry" />
        </mxCell>
        <mxCell id="yA-_8tyoc5Dq8h9AbaSu-148" value="Sim" style="text;html=1;align=center;verticalAlign=middle;resizable=0;points=[];autosize=1;strokeColor=none;fillColor=none;" vertex="1" parent="1">
          <mxGeometry x="1410" y="1948" width="40" height="30" as="geometry" />
        </mxCell>
        <mxCell id="yA-_8tyoc5Dq8h9AbaSu-149" value="Não" style="text;html=1;align=center;verticalAlign=middle;resizable=0;points=[];autosize=1;strokeColor=none;fillColor=none;" vertex="1" parent="1">
          <mxGeometry x="1240" y="1780" width="50" height="30" as="geometry" />
        </mxCell>
        <mxCell id="yA-_8tyoc5Dq8h9AbaSu-150" style="edgeStyle=orthogonalEdgeStyle;rounded=0;orthogonalLoop=1;jettySize=auto;html=1;" edge="1" parent="1" source="yA-_8tyoc5Dq8h9AbaSu-151" target="yA-_8tyoc5Dq8h9AbaSu-154">
          <mxGeometry relative="1" as="geometry" />
        </mxCell>
        <mxCell id="yA-_8tyoc5Dq8h9AbaSu-151" value="Questão 6" style="rounded=0;whiteSpace=wrap;html=1;" vertex="1" parent="1">
          <mxGeometry x="1330" y="2000" width="120" height="60" as="geometry" />
        </mxCell>
        <mxCell id="yA-_8tyoc5Dq8h9AbaSu-152" style="edgeStyle=orthogonalEdgeStyle;rounded=0;orthogonalLoop=1;jettySize=auto;html=1;entryX=0;entryY=0.5;entryDx=0;entryDy=0;" edge="1" parent="1" source="yA-_8tyoc5Dq8h9AbaSu-154" target="yA-_8tyoc5Dq8h9AbaSu-151">
          <mxGeometry relative="1" as="geometry">
            <Array as="points">
              <mxPoint x="1310" y="2180" />
              <mxPoint x="1310" y="2030" />
            </Array>
          </mxGeometry>
        </mxCell>
        <mxCell id="yA-_8tyoc5Dq8h9AbaSu-153" style="edgeStyle=orthogonalEdgeStyle;rounded=0;orthogonalLoop=1;jettySize=auto;html=1;" edge="1" parent="1" source="yA-_8tyoc5Dq8h9AbaSu-154">
          <mxGeometry relative="1" as="geometry">
            <mxPoint x="1390" y="2310" as="targetPoint" />
          </mxGeometry>
        </mxCell>
        <mxCell id="yA-_8tyoc5Dq8h9AbaSu-154" value="Acertou?" style="rhombus;whiteSpace=wrap;html=1;" vertex="1" parent="1">
          <mxGeometry x="1350" y="2140" width="80" height="80" as="geometry" />
        </mxCell>
        <mxCell id="yA-_8tyoc5Dq8h9AbaSu-155" value="Sim" style="text;html=1;align=center;verticalAlign=middle;resizable=0;points=[];autosize=1;strokeColor=none;fillColor=none;" vertex="1" parent="1">
          <mxGeometry x="1410" y="2258" width="40" height="30" as="geometry" />
        </mxCell>
        <mxCell id="yA-_8tyoc5Dq8h9AbaSu-156" value="Não" style="text;html=1;align=center;verticalAlign=middle;resizable=0;points=[];autosize=1;strokeColor=none;fillColor=none;" vertex="1" parent="1">
          <mxGeometry x="1240" y="2090" width="50" height="30" as="geometry" />
        </mxCell>
        <mxCell id="yA-_8tyoc5Dq8h9AbaSu-157" style="edgeStyle=orthogonalEdgeStyle;rounded=0;orthogonalLoop=1;jettySize=auto;html=1;" edge="1" parent="1" source="yA-_8tyoc5Dq8h9AbaSu-158" target="yA-_8tyoc5Dq8h9AbaSu-161">
          <mxGeometry relative="1" as="geometry" />
        </mxCell>
        <mxCell id="yA-_8tyoc5Dq8h9AbaSu-158" value="Questão 7" style="rounded=0;whiteSpace=wrap;html=1;" vertex="1" parent="1">
          <mxGeometry x="1330" y="2310" width="120" height="60" as="geometry" />
        </mxCell>
        <mxCell id="yA-_8tyoc5Dq8h9AbaSu-159" style="edgeStyle=orthogonalEdgeStyle;rounded=0;orthogonalLoop=1;jettySize=auto;html=1;entryX=0;entryY=0.5;entryDx=0;entryDy=0;" edge="1" parent="1" source="yA-_8tyoc5Dq8h9AbaSu-161" target="yA-_8tyoc5Dq8h9AbaSu-158">
          <mxGeometry relative="1" as="geometry">
            <Array as="points">
              <mxPoint x="1310" y="2490" />
              <mxPoint x="1310" y="2340" />
            </Array>
          </mxGeometry>
        </mxCell>
        <mxCell id="yA-_8tyoc5Dq8h9AbaSu-161" value="Acertou?" style="rhombus;whiteSpace=wrap;html=1;" vertex="1" parent="1">
          <mxGeometry x="1350" y="2450" width="80" height="80" as="geometry" />
        </mxCell>
        <mxCell id="yA-_8tyoc5Dq8h9AbaSu-162" value="Sim" style="text;html=1;align=center;verticalAlign=middle;resizable=0;points=[];autosize=1;strokeColor=none;fillColor=none;" vertex="1" parent="1">
          <mxGeometry x="1410" y="2568" width="40" height="30" as="geometry" />
        </mxCell>
        <mxCell id="yA-_8tyoc5Dq8h9AbaSu-163" value="Não" style="text;html=1;align=center;verticalAlign=middle;resizable=0;points=[];autosize=1;strokeColor=none;fillColor=none;" vertex="1" parent="1">
          <mxGeometry x="1240" y="2400" width="50" height="30" as="geometry" />
        </mxCell>
        <mxCell id="yA-_8tyoc5Dq8h9AbaSu-168" style="edgeStyle=orthogonalEdgeStyle;rounded=0;orthogonalLoop=1;jettySize=auto;html=1;entryX=0;entryY=0.5;entryDx=0;entryDy=0;" edge="1" parent="1" source="yA-_8tyoc5Dq8h9AbaSu-167" target="yA-_8tyoc5Dq8h9AbaSu-1">
          <mxGeometry relative="1" as="geometry">
            <Array as="points">
              <mxPoint x="895" y="2970" />
              <mxPoint x="60" y="2970" />
              <mxPoint x="60" y="60" />
            </Array>
          </mxGeometry>
        </mxCell>
        <mxCell id="yA-_8tyoc5Dq8h9AbaSu-167" value="Parabéns!!!" style="rounded=0;whiteSpace=wrap;html=1;" vertex="1" parent="1">
          <mxGeometry x="835" y="2850" width="120" height="60" as="geometry" />
        </mxCell>
        <mxCell id="yA-_8tyoc5Dq8h9AbaSu-171" style="edgeStyle=orthogonalEdgeStyle;rounded=0;orthogonalLoop=1;jettySize=auto;html=1;entryX=0;entryY=0.5;entryDx=0;entryDy=0;" edge="1" parent="1" source="yA-_8tyoc5Dq8h9AbaSu-169" target="yA-_8tyoc5Dq8h9AbaSu-8">
          <mxGeometry relative="1" as="geometry">
            <Array as="points">
              <mxPoint x="180" y="490" />
            </Array>
          </mxGeometry>
        </mxCell>
        <mxCell id="yA-_8tyoc5Dq8h9AbaSu-169" value="Você errou!&lt;div&gt;(Slide 7, 8)&lt;/div&gt;" style="rounded=0;whiteSpace=wrap;html=1;" vertex="1" parent="1">
          <mxGeometry x="130" y="620" width="90" height="40" as="geometry" />
        </mxCell>
        <mxCell id="yA-_8tyoc5Dq8h9AbaSu-178" style="edgeStyle=orthogonalEdgeStyle;rounded=0;orthogonalLoop=1;jettySize=auto;html=1;exitX=0.5;exitY=0;exitDx=0;exitDy=0;entryX=0;entryY=0.5;entryDx=0;entryDy=0;" edge="1" parent="1" source="yA-_8tyoc5Dq8h9AbaSu-172" target="yA-_8tyoc5Dq8h9AbaSu-25">
          <mxGeometry relative="1" as="geometry" />
        </mxCell>
        <mxCell id="yA-_8tyoc5Dq8h9AbaSu-172" value="Você errou!&lt;div&gt;(Slide 11, 12)&lt;/div&gt;" style="rounded=0;whiteSpace=wrap;html=1;" vertex="1" parent="1">
          <mxGeometry x="130" y="930" width="90" height="40" as="geometry" />
        </mxCell>
        <mxCell id="yA-_8tyoc5Dq8h9AbaSu-180" style="edgeStyle=orthogonalEdgeStyle;rounded=0;orthogonalLoop=1;jettySize=auto;html=1;exitX=0.5;exitY=0;exitDx=0;exitDy=0;entryX=0;entryY=0.5;entryDx=0;entryDy=0;" edge="1" parent="1" source="yA-_8tyoc5Dq8h9AbaSu-173" target="yA-_8tyoc5Dq8h9AbaSu-32">
          <mxGeometry relative="1" as="geometry" />
        </mxCell>
        <mxCell id="yA-_8tyoc5Dq8h9AbaSu-173" value="Você errou!&lt;div&gt;(Slide 15, 16)&lt;/div&gt;" style="rounded=0;whiteSpace=wrap;html=1;" vertex="1" parent="1">
          <mxGeometry x="130" y="1230" width="90" height="40" as="geometry" />
        </mxCell>
        <mxCell id="yA-_8tyoc5Dq8h9AbaSu-182" style="edgeStyle=orthogonalEdgeStyle;rounded=0;orthogonalLoop=1;jettySize=auto;html=1;entryX=0;entryY=0.5;entryDx=0;entryDy=0;" edge="1" parent="1" source="yA-_8tyoc5Dq8h9AbaSu-174" target="yA-_8tyoc5Dq8h9AbaSu-39">
          <mxGeometry relative="1" as="geometry">
            <Array as="points">
              <mxPoint x="175" y="1410" />
            </Array>
          </mxGeometry>
        </mxCell>
        <mxCell id="yA-_8tyoc5Dq8h9AbaSu-174" value="Você errou!&lt;div&gt;(Slide 19, 20)&lt;/div&gt;" style="rounded=0;whiteSpace=wrap;html=1;" vertex="1" parent="1">
          <mxGeometry x="130" y="1540" width="90" height="40" as="geometry" />
        </mxCell>
        <mxCell id="yA-_8tyoc5Dq8h9AbaSu-184" style="edgeStyle=orthogonalEdgeStyle;rounded=0;orthogonalLoop=1;jettySize=auto;html=1;exitX=0.5;exitY=0;exitDx=0;exitDy=0;entryX=0;entryY=0.5;entryDx=0;entryDy=0;" edge="1" parent="1" source="yA-_8tyoc5Dq8h9AbaSu-175" target="yA-_8tyoc5Dq8h9AbaSu-46">
          <mxGeometry relative="1" as="geometry" />
        </mxCell>
        <mxCell id="yA-_8tyoc5Dq8h9AbaSu-175" value="Você errou!&lt;div&gt;(Slide 23, 24)&lt;/div&gt;" style="rounded=0;whiteSpace=wrap;html=1;" vertex="1" parent="1">
          <mxGeometry x="130" y="1850" width="90" height="40" as="geometry" />
        </mxCell>
        <mxCell id="yA-_8tyoc5Dq8h9AbaSu-186" style="edgeStyle=orthogonalEdgeStyle;rounded=0;orthogonalLoop=1;jettySize=auto;html=1;exitX=0.5;exitY=0;exitDx=0;exitDy=0;entryX=0;entryY=0.5;entryDx=0;entryDy=0;" edge="1" parent="1" source="yA-_8tyoc5Dq8h9AbaSu-176" target="yA-_8tyoc5Dq8h9AbaSu-53">
          <mxGeometry relative="1" as="geometry" />
        </mxCell>
        <mxCell id="yA-_8tyoc5Dq8h9AbaSu-176" value="Você errou!&lt;div&gt;(Slide 27, 28)&lt;/div&gt;" style="rounded=0;whiteSpace=wrap;html=1;" vertex="1" parent="1">
          <mxGeometry x="130" y="2160" width="90" height="40" as="geometry" />
        </mxCell>
        <mxCell id="yA-_8tyoc5Dq8h9AbaSu-189" style="edgeStyle=orthogonalEdgeStyle;rounded=0;orthogonalLoop=1;jettySize=auto;html=1;exitX=0.5;exitY=0;exitDx=0;exitDy=0;entryX=0;entryY=0.5;entryDx=0;entryDy=0;" edge="1" parent="1" source="yA-_8tyoc5Dq8h9AbaSu-187" target="yA-_8tyoc5Dq8h9AbaSu-60">
          <mxGeometry relative="1" as="geometry" />
        </mxCell>
        <mxCell id="yA-_8tyoc5Dq8h9AbaSu-187" value="Você errou!&lt;div&gt;(Slide 31, 32)&lt;/div&gt;" style="rounded=0;whiteSpace=wrap;html=1;" vertex="1" parent="1">
          <mxGeometry x="130" y="2470" width="90" height="40" as="geometry" />
        </mxCell>
        <mxCell id="yA-_8tyoc5Dq8h9AbaSu-193" style="edgeStyle=orthogonalEdgeStyle;rounded=0;orthogonalLoop=1;jettySize=auto;html=1;exitX=0.5;exitY=1;exitDx=0;exitDy=0;entryX=0.5;entryY=0;entryDx=0;entryDy=0;" edge="1" parent="1" source="yA-_8tyoc5Dq8h9AbaSu-191" target="yA-_8tyoc5Dq8h9AbaSu-25">
          <mxGeometry relative="1" as="geometry" />
        </mxCell>
        <mxCell id="yA-_8tyoc5Dq8h9AbaSu-191" value="Você acertou!&lt;div&gt;(Slide 9)&lt;/div&gt;" style="rounded=0;whiteSpace=wrap;html=1;" vertex="1" parent="1">
          <mxGeometry x="370" y="710" width="80" height="30" as="geometry" />
        </mxCell>
        <mxCell id="yA-_8tyoc5Dq8h9AbaSu-198" style="edgeStyle=orthogonalEdgeStyle;rounded=0;orthogonalLoop=1;jettySize=auto;html=1;entryX=0.5;entryY=0;entryDx=0;entryDy=0;exitX=0.5;exitY=1;exitDx=0;exitDy=0;" edge="1" parent="1" target="yA-_8tyoc5Dq8h9AbaSu-200" source="yA-_8tyoc5Dq8h9AbaSu-28">
          <mxGeometry relative="1" as="geometry">
            <mxPoint x="410" y="1000" as="sourcePoint" />
          </mxGeometry>
        </mxCell>
        <mxCell id="yA-_8tyoc5Dq8h9AbaSu-199" style="edgeStyle=orthogonalEdgeStyle;rounded=0;orthogonalLoop=1;jettySize=auto;html=1;exitX=0.5;exitY=1;exitDx=0;exitDy=0;entryX=0.5;entryY=0;entryDx=0;entryDy=0;" edge="1" parent="1" source="yA-_8tyoc5Dq8h9AbaSu-200">
          <mxGeometry relative="1" as="geometry">
            <mxPoint x="410" y="1070" as="targetPoint" />
          </mxGeometry>
        </mxCell>
        <mxCell id="yA-_8tyoc5Dq8h9AbaSu-200" value="Você acertou!&lt;div&gt;(Slide 13)&lt;/div&gt;" style="rounded=0;whiteSpace=wrap;html=1;" vertex="1" parent="1">
          <mxGeometry x="370" y="1010" width="80" height="30" as="geometry" />
        </mxCell>
        <mxCell id="yA-_8tyoc5Dq8h9AbaSu-201" style="edgeStyle=orthogonalEdgeStyle;rounded=0;orthogonalLoop=1;jettySize=auto;html=1;entryX=0.5;entryY=0;entryDx=0;entryDy=0;" edge="1" parent="1" target="yA-_8tyoc5Dq8h9AbaSu-203">
          <mxGeometry relative="1" as="geometry">
            <mxPoint x="410" y="1290" as="sourcePoint" />
          </mxGeometry>
        </mxCell>
        <mxCell id="yA-_8tyoc5Dq8h9AbaSu-202" style="edgeStyle=orthogonalEdgeStyle;rounded=0;orthogonalLoop=1;jettySize=auto;html=1;exitX=0.5;exitY=1;exitDx=0;exitDy=0;entryX=0.5;entryY=0;entryDx=0;entryDy=0;" edge="1" parent="1" source="yA-_8tyoc5Dq8h9AbaSu-203">
          <mxGeometry relative="1" as="geometry">
            <mxPoint x="410" y="1380" as="targetPoint" />
          </mxGeometry>
        </mxCell>
        <mxCell id="yA-_8tyoc5Dq8h9AbaSu-203" value="Você acertou!&lt;div&gt;(Slide 17)&lt;/div&gt;" style="rounded=0;whiteSpace=wrap;html=1;" vertex="1" parent="1">
          <mxGeometry x="370" y="1320" width="80" height="30" as="geometry" />
        </mxCell>
        <mxCell id="yA-_8tyoc5Dq8h9AbaSu-204" style="edgeStyle=orthogonalEdgeStyle;rounded=0;orthogonalLoop=1;jettySize=auto;html=1;entryX=0.5;entryY=0;entryDx=0;entryDy=0;" edge="1" parent="1" target="yA-_8tyoc5Dq8h9AbaSu-206">
          <mxGeometry relative="1" as="geometry">
            <mxPoint x="410" y="1600" as="sourcePoint" />
          </mxGeometry>
        </mxCell>
        <mxCell id="yA-_8tyoc5Dq8h9AbaSu-205" style="edgeStyle=orthogonalEdgeStyle;rounded=0;orthogonalLoop=1;jettySize=auto;html=1;exitX=0.5;exitY=1;exitDx=0;exitDy=0;entryX=0.5;entryY=0;entryDx=0;entryDy=0;" edge="1" parent="1" source="yA-_8tyoc5Dq8h9AbaSu-206">
          <mxGeometry relative="1" as="geometry">
            <mxPoint x="410" y="1690" as="targetPoint" />
          </mxGeometry>
        </mxCell>
        <mxCell id="yA-_8tyoc5Dq8h9AbaSu-206" value="Você acertou!&lt;div&gt;(Slide 21)&lt;/div&gt;" style="rounded=0;whiteSpace=wrap;html=1;" vertex="1" parent="1">
          <mxGeometry x="370" y="1630" width="80" height="30" as="geometry" />
        </mxCell>
        <mxCell id="yA-_8tyoc5Dq8h9AbaSu-207" style="edgeStyle=orthogonalEdgeStyle;rounded=0;orthogonalLoop=1;jettySize=auto;html=1;entryX=0.5;entryY=0;entryDx=0;entryDy=0;" edge="1" parent="1" target="yA-_8tyoc5Dq8h9AbaSu-209">
          <mxGeometry relative="1" as="geometry">
            <mxPoint x="410" y="1910" as="sourcePoint" />
          </mxGeometry>
        </mxCell>
        <mxCell id="yA-_8tyoc5Dq8h9AbaSu-208" style="edgeStyle=orthogonalEdgeStyle;rounded=0;orthogonalLoop=1;jettySize=auto;html=1;exitX=0.5;exitY=1;exitDx=0;exitDy=0;entryX=0.5;entryY=0;entryDx=0;entryDy=0;" edge="1" parent="1" source="yA-_8tyoc5Dq8h9AbaSu-209">
          <mxGeometry relative="1" as="geometry">
            <mxPoint x="410" y="2000" as="targetPoint" />
          </mxGeometry>
        </mxCell>
        <mxCell id="yA-_8tyoc5Dq8h9AbaSu-209" value="Você acertou!&lt;div&gt;(Slide 25)&lt;/div&gt;" style="rounded=0;whiteSpace=wrap;html=1;" vertex="1" parent="1">
          <mxGeometry x="370" y="1940" width="80" height="30" as="geometry" />
        </mxCell>
        <mxCell id="yA-_8tyoc5Dq8h9AbaSu-210" style="edgeStyle=orthogonalEdgeStyle;rounded=0;orthogonalLoop=1;jettySize=auto;html=1;entryX=0.5;entryY=0;entryDx=0;entryDy=0;" edge="1" parent="1" target="yA-_8tyoc5Dq8h9AbaSu-212">
          <mxGeometry relative="1" as="geometry">
            <mxPoint x="410" y="2220" as="sourcePoint" />
          </mxGeometry>
        </mxCell>
        <mxCell id="yA-_8tyoc5Dq8h9AbaSu-211" style="edgeStyle=orthogonalEdgeStyle;rounded=0;orthogonalLoop=1;jettySize=auto;html=1;exitX=0.5;exitY=1;exitDx=0;exitDy=0;entryX=0.5;entryY=0;entryDx=0;entryDy=0;" edge="1" parent="1" source="yA-_8tyoc5Dq8h9AbaSu-212">
          <mxGeometry relative="1" as="geometry">
            <mxPoint x="410" y="2310" as="targetPoint" />
          </mxGeometry>
        </mxCell>
        <mxCell id="yA-_8tyoc5Dq8h9AbaSu-212" value="Você acertou!&lt;div&gt;(Slide 29)&lt;/div&gt;" style="rounded=0;whiteSpace=wrap;html=1;" vertex="1" parent="1">
          <mxGeometry x="370" y="2250" width="80" height="30" as="geometry" />
        </mxCell>
        <mxCell id="yA-_8tyoc5Dq8h9AbaSu-217" style="edgeStyle=orthogonalEdgeStyle;rounded=0;orthogonalLoop=1;jettySize=auto;html=1;" edge="1" parent="1" target="yA-_8tyoc5Dq8h9AbaSu-219">
          <mxGeometry relative="1" as="geometry">
            <mxPoint x="410" y="2530" as="sourcePoint" />
          </mxGeometry>
        </mxCell>
        <mxCell id="yA-_8tyoc5Dq8h9AbaSu-221" style="edgeStyle=orthogonalEdgeStyle;rounded=0;orthogonalLoop=1;jettySize=auto;html=1;" edge="1" parent="1" source="yA-_8tyoc5Dq8h9AbaSu-219" target="yA-_8tyoc5Dq8h9AbaSu-220">
          <mxGeometry relative="1" as="geometry" />
        </mxCell>
        <mxCell id="yA-_8tyoc5Dq8h9AbaSu-219" value="Você acertou!&lt;div&gt;(Slide 33)&lt;/div&gt;" style="rounded=0;whiteSpace=wrap;html=1;" vertex="1" parent="1">
          <mxGeometry x="370" y="2560" width="80" height="30" as="geometry" />
        </mxCell>
        <mxCell id="yA-_8tyoc5Dq8h9AbaSu-222" style="edgeStyle=orthogonalEdgeStyle;rounded=0;orthogonalLoop=1;jettySize=auto;html=1;entryX=0;entryY=0.5;entryDx=0;entryDy=0;" edge="1" parent="1" source="yA-_8tyoc5Dq8h9AbaSu-220" target="yA-_8tyoc5Dq8h9AbaSu-1">
          <mxGeometry relative="1" as="geometry">
            <Array as="points">
              <mxPoint x="60" y="2880" />
              <mxPoint x="60" y="60" />
            </Array>
          </mxGeometry>
        </mxCell>
        <mxCell id="yA-_8tyoc5Dq8h9AbaSu-220" value="Concluiu o nível fácil!!!&lt;div&gt;(Slide 34)&lt;/div&gt;" style="rounded=0;whiteSpace=wrap;html=1;" vertex="1" parent="1">
          <mxGeometry x="350" y="2850" width="120" height="60" as="geometry" />
        </mxCell>
      </root>
    </mxGraphModel>
  </diagram>
</mxfile>
